<?xml version="1.0" encoding="iso-8859-1"?>
<!-- Uploaded to: SVG Repo, www.svgrepo.com, Generator: SVG Repo Mixer Tools -->
<svg fill="#000000" version="1.1" id="Capa_1" xmlns="http://www.w3.org/2000/svg" xmlns:xlink="http://www.w3.org/1999/xlink" 
	 viewBox="0 0 60 60" xml:space="preserve">
<g>
	<g>
		<path d="M36,34h2v-5c0-5.4-4.2-9.8-9.5-10c0.3-0.6,0.5-1.3,0.5-2v-2c0-2.2-1.8-4-4-4H13c-2.2,0-4,1.8-4,4v2c0,0.7,0.2,1.4,0.5,2
			C4.2,19.3,0,23.6,0,29v21c0,5.5,4.5,10,10,10h18v-2H10c-4.4,0-8-3.6-8-8V29c0-4.4,3.6-8,8-8h3h8v-2h-8c-1.1,0-2-0.9-2-2v-2
			c0-1.1,0.9-2,2-2h12c1.1,0,2,0.9,2,2v2c0,1.1-0.9,2-2,2c-0.6,0-1,0.4-1,1s0.4,1,1,1h3c4.4,0,8,3.6,8,8V34z"/>
		<path d="M18,32h2c1.7,0,3,1.3,3,3h2c0-2.8-2.2-5-5-5v-2h-2v2c-2.8,0-5,2.2-5,5s2.2,5,5,5h2c1.7,0,3,1.3,3,3s-1.3,3-3,3h-2
			c-1.7,0-3-1.3-3-3h-2c0,2.8,2.2,5,5,5v2h2v-2c2.8,0,5-2.2,5-5s-2.2-5-5-5h-2c-1.7,0-3-1.3-3-3S16.3,32,18,32z"/>
		<rect x="10" y="23" width="2" height="2"/>
		<rect x="14" y="23" width="2" height="2"/>
		<rect x="18" y="23" width="2" height="2"/>
		<rect x="22" y="23" width="2" height="2"/>
		<rect x="26" y="23" width="2" height="2"/>
		<rect x="10" y="53" width="2" height="2"/>
		<rect x="14" y="53" width="2" height="2"/>
		<rect x="18" y="53" width="2" height="2"/>
		<rect x="22" y="53" width="2" height="2"/>
		<rect x="26" y="53" width="2" height="2"/>
		<path d="M59,30H47c-0.6,0-1,0.4-1,1v4v3H35c-0.6,0-1,0.4-1,1v4v4v4v4v4c0,0.6,0.4,1,1,1h12h12c0.6,0,1-0.4,1-1v-4v-4v-4v-4v-4v-4
			v-4C60,30.4,59.6,30,59,30z M48,36h10v2H48V36z M58,40v2H48v-2H58z M58,46H48v-2h10V46z M58,50H48v-2h10V50z M36,48h10v2H36V48z
			 M46,46H36v-2h10V46z M36,52h10v2H36V52z M48,52h10v2H48V52z M48,32h10v2H48V32z M36,40h10v2H36V40z M36,56h10v2H36V56z M58,58H48
			v-2h10V58z"/>
		<path d="M59,0H37c-0.6,0-1,0.4-1,1v18c0,0.3,0.2,0.6,0.4,0.8l11,8c0.2,0.1,0.4,0.2,0.6,0.2s0.4-0.1,0.6-0.2l11-8
			c0.2-0.2,0.4-0.5,0.4-0.8V1C60,0.4,59.6,0,59,0z M58,2v6H38V2H58z M48,25.8l-10-7.3V10h20v8.5L48,25.8z"/>
		<rect x="41" y="4" width="2" height="2"/>
		<rect x="45" y="4" width="2" height="2"/>
		<rect x="49" y="4" width="2" height="2"/>
		<rect x="53" y="4" width="2" height="2"/>
		<path d="M46.8,17.6l-2.3-1.5l-1.1,1.7l3,2c0.2,0.1,0.4,0.2,0.6,0.2c0.3,0,0.5-0.1,0.6-0.4l6-6l-1.4-1.4L46.8,17.6z"/>
	</g>
</g>
</svg>